<?xml version="1.0" encoding="iso-8859-1"?>
<!-- Generator: Adobe Illustrator 19.0.0, SVG Export Plug-In . SVG Version: 6.00 Build 0)  -->
<svg version="1.1" id="Layer_1" xmlns="http://www.w3.org/2000/svg" xmlns:xlink="http://www.w3.org/1999/xlink" x="0px" y="0px"
	 viewBox="0 0 512.003 512.003" style="enable-background:new 0 0 512.003 512.003;" xml:space="preserve">
<g>
	<g>
		<path d="M506.372,241.279c-1.919-2.142-30.761-33.88-74.738-58.027c14.022-48.171,11.975-91.01,11.816-93.88
			c-0.621-11.232-9.59-20.201-20.821-20.821c-0.334-0.019-3.406-0.18-8.565-0.18c-14.447,0-48.234,1.364-85.245,12.122
			c-24.156-44.047-55.954-72.945-58.098-74.865c-8.379-7.505-21.063-7.505-29.444,0c-2.144,1.92-33.942,30.817-58.096,74.865
			c-37.011-10.758-70.8-12.122-85.245-12.122c-5.161,0-8.232,0.16-8.566,0.18c-11.232,0.619-20.2,9.589-20.819,20.821
			c-0.159,2.87-2.207,45.709,11.816,93.88C36.39,207.399,7.546,239.137,5.629,241.279c-7.504,8.381-7.504,21.065,0,29.445
			c1.917,2.142,30.761,33.88,74.738,58.027c-14.022,48.171-11.975,91.01-11.816,93.88c0.619,11.232,9.589,20.201,20.821,20.821
			c0.334,0.019,3.406,0.18,8.565,0.18c14.447,0,48.236-1.364,85.245-12.122c24.156,44.048,55.954,72.945,58.096,74.865
			c4.19,3.752,9.456,5.628,14.722,5.628c5.266,0,10.532-1.876,14.722-5.628c2.144-1.92,33.942-30.817,58.098-74.865
			c37.009,10.758,70.798,12.122,85.245,12.122c0.001,0,0.003,0,0.004,0c5.16,0,8.229-0.16,8.562-0.18
			c11.232-0.619,20.198-9.589,20.819-20.821c0.157-2.871,2.206-45.708-11.816-93.88c43.978-24.147,72.82-55.885,74.738-58.027
			C513.877,262.344,513.877,249.66,506.372,241.279z M398.978,112.985c-0.831,13.592-2.971,32.387-8.229,52.38
			c-11.46-3.736-23.498-6.584-35.991-8.122c-1.542-12.518-4.396-24.577-8.142-36.056C366.603,115.925,385.384,113.8,398.978,112.985
			z M256,53.804c9.034,10.214,20.822,25.036,31.243,42.911c-10.772,5.451-21.319,11.918-31.242,19.643
			c-9.923-7.726-20.47-14.192-31.242-19.643C235.181,78.836,246.969,64.015,256,53.804z M165.383,121.186
			c-3.746,11.481-6.602,23.54-8.142,36.056c-12.494,1.539-24.53,4.386-35.991,8.122c-5.257-19.995-7.396-38.791-8.229-52.379
			C126.614,113.8,145.397,115.925,165.383,121.186z M96.627,287.193c-17.84-10.411-32.631-22.176-42.826-31.19
			c10.199-9.019,24.989-20.782,42.826-31.193c5.463,10.745,11.96,21.271,19.708,31.192
			C108.589,265.924,102.09,276.448,96.627,287.193z M113.023,399.017c0.831-13.592,2.971-32.387,8.228-52.38
			c11.462,3.736,23.497,6.584,35.991,8.122c1.54,12.518,4.396,24.577,8.142,36.056C145.397,396.078,126.617,398.202,113.023,399.017
			z M256,458.198c-9.034-10.215-20.821-25.036-31.242-42.909c10.771-5.451,21.319-11.918,31.242-19.644
			c9.923,7.726,20.47,14.192,31.242,19.644C276.821,433.164,265.034,447.983,256,458.198z M311.907,333.978
			c0,14.214-2.532,28.024-6.612,41.089c-12.096-6.358-23.632-14.338-33.69-24.396c-4.139-4.139-9.752-6.465-15.605-6.465
			c-5.853,0-11.467,2.326-15.606,6.465c-10.056,10.058-21.595,18.04-33.689,24.396c-4.081-13.065-6.612-26.875-6.612-41.089
			c0-12.188-9.881-22.07-22.07-22.07c-14.203,0-28.002-2.526-41.057-6.602c6.35-12.113,14.32-23.657,24.365-33.699
			c4.139-4.139,6.465-9.752,6.465-15.606c0-5.854-2.326-11.467-6.465-15.606c-10.043-10.043-18.013-21.587-24.364-33.699
			c13.055-4.076,26.853-6.602,41.057-6.602c12.188,0,22.07-9.881,22.07-22.07c0-14.214,2.531-28.024,6.612-41.089
			c12.096,6.358,23.632,14.339,33.689,24.397c4.139,4.139,9.752,6.465,15.606,6.465c5.854,0,11.467-2.326,15.605-6.465
			c10.058-10.058,21.594-18.04,33.69-24.397c4.081,13.065,6.612,26.876,6.612,41.091c0,12.188,9.881,22.07,22.07,22.07
			c14.203,0,28.001,2.526,41.057,6.602c-6.35,12.113-14.32,23.657-24.364,33.699c-4.14,4.139-6.465,9.752-6.465,15.606
			c0,5.854,2.323,11.466,6.463,15.605c10.043,10.043,18.013,21.586,24.364,33.699c-13.055,4.076-26.854,6.602-41.057,6.602
			C321.788,311.908,311.907,321.789,311.907,333.978z M346.615,390.815c3.746-11.479,6.6-23.538,8.142-36.055
			c12.494-1.538,24.531-4.386,35.993-8.122c5.257,19.997,7.396,38.793,8.229,52.379
			C385.386,398.202,366.603,396.076,346.615,390.815z M415.371,287.194c-5.463-10.745-11.96-21.269-19.708-31.192
			c7.748-9.923,14.245-20.448,19.708-31.192c17.841,10.411,32.632,22.176,42.827,31.192
			C447.999,265.02,433.21,276.783,415.371,287.194z"/>
	</g>
</g>
<g>
	<g>
		<path d="M271.609,240.39c-4.118-4.105-9.797-6.459-15.609-6.459c-5.812,0-11.506,2.354-15.611,6.459
			c-4.105,4.105-6.459,9.799-6.459,15.611c0,5.812,2.354,11.491,6.459,15.611c4.105,4.105,9.799,6.459,15.611,6.459
			c5.812,0,11.491-2.354,15.609-6.459c4.105-4.12,6.461-9.799,6.461-15.611C278.07,250.189,275.714,244.51,271.609,240.39z"/>
	</g>
</g>
<g>
</g>
<g>
</g>
<g>
</g>
<g>
</g>
<g>
</g>
<g>
</g>
<g>
</g>
<g>
</g>
<g>
</g>
<g>
</g>
<g>
</g>
<g>
</g>
<g>
</g>
<g>
</g>
<g>
</g>
</svg>
